<svg xmlns:dc="http://purl.org/dc/elements/1.1/" xmlns:cc="http://creativecommons.org/ns#" xmlns:rdf="http://www.w3.org/1999/02/22-rdf-syntax-ns#" xmlns:svg="http://www.w3.org/2000/svg" xmlns="http://www.w3.org/2000/svg" xmlns:xlink="http://www.w3.org/1999/xlink" id="svg244527" viewBox="0 0 1024 768" height="768px" width="1024px" version="1.1">
  <metadata id="metadata244533">
    <rdf:rdf>
      <cc:work rdf:about="">
        <dc:format>image/svg+xml</dc:format>
        <dc:type rdf:resource="http://purl.org/dc/dcmitype/StillImage"/>
      </cc:work>
    </rdf:rdf>
  </metadata>
  <defs id="defs244531"/>
  <linearGradient spreadMethod="pad" y2="30%" x2="-10%" y1="120%" x1="30%" id="3d_gradient2-logo-2a0509f3-9097-42f6-a880-3401b1479c71">
    <stop id="stop244508" stop-opacity="1" stop-color="#ffffff" offset="0%"/>
    <stop id="stop244510" stop-opacity="1" stop-color="#000000" offset="100%"/>
  </linearGradient>
  <linearGradient gradientTransform="rotate(-30)" spreadMethod="pad" y2="30%" x2="-10%" y1="120%" x1="30%" id="3d_gradient3-logo-2a0509f3-9097-42f6-a880-3401b1479c71">
    <stop id="stop244513" stop-opacity="1" stop-color="#ffffff" offset="0%"/>
    <stop id="stop244515" stop-opacity="1" stop-color="#cccccc" offset="50%"/>
    <stop id="stop244517" stop-opacity="1" stop-color="#000000" offset="100%"/>
  </linearGradient>
  <g id="logo-group">
    <image xlink:href="" id="container" x="272" y="144" width="480" height="480" style="display: none;" transform="translate(0 0)"/>
    <g id="logo-center" transform="translate(141.2355116666667 0)">
      <image xlink:href="" id="icon_container" style="display: none;" x="0" y="0"/>
      <g id="slogan" style="font-style:normal;font-weight:700;font-size:32px;line-height:1;font-family:'Comfortaa Bold Alt2';font-variant-ligatures:none;text-align:center;text-anchor:middle" transform="translate(0 0)"/>
      <g id="title" style="font-style:normal;font-weight:700;font-size:72px;line-height:1;font-family:'Comfortaa Bold Alt2';font-variant-ligatures:none;text-align:center;text-anchor:middle" transform="translate(0 0)">
        <path id="path244536" style="font-style:normal;font-weight:700;font-size:72px;line-height:1;font-family:'Comfortaa Bold Alt2';font-variant-ligatures:none;text-align:center;text-anchor:middle" d="m 419.38212,-6.048 -16.128,-22.392 16.416,-21.888 c 0.504,-0.792 0.79201,-1.584 0.79201,-2.448 0,-0.936 -0.36001,-1.728 -0.93601,-2.448 -0.57599,-0.648 -1.368,-1.008 -2.376,-1.008 -1.15199,0 -2.016,0.36 -2.66399,1.08 l -16.12801,21.456 -15.48,-21.456 c -0.576,-0.72 -1.43999,-1.08 -2.66399,-1.08 -1.08001,0 -1.94401,0.36 -2.52001,1.08 -0.64799,0.72 -0.936,1.584 -0.936,2.592 0,0.864 0.21601,1.656 0.72,2.232 l 15.84,21.96 -16.776,22.32 c -0.576,0.792 -0.86399,1.656 -0.86399,2.592 0,1.008 0.28799,1.8 0.86399,2.448 0.57601,0.72 1.44,1.008 2.52,1.008 1.00801,0 1.872,-0.36 2.59201,-1.08 l 16.56,-21.96 15.62399,21.672 c 0.72001,0.936 1.656,1.368 2.88,1.368 1.00801,0 1.872,-0.36 2.52001,-1.08 0.57599,-0.72 0.93599,-1.512 0.93599,-2.52 0,-0.864 -0.288,-1.656 -0.792,-2.448 z" stroke-width="0" stroke-linejoin="miter" stroke-miterlimit="2" fill="#219ab3" stroke="#219ab3" transform="translate(0 323.632) translate(50 -24.976) scale(2.3333333333333335) translate(-375.67813 56.232)"/>
        <path id="path244538" style="font-style:normal;font-weight:700;font-size:72px;line-height:1;font-family:'Comfortaa Bold Alt2';font-variant-ligatures:none;text-align:center;text-anchor:middle" d="m 464.2235,-33.768 c -3.888,-3.888 -8.568,-5.832 -14.112,-5.832 -5.544,0 -10.224,1.944 -14.112,5.832 -3.888,3.888 -5.832,8.64 -5.832,14.112 v 33.12 c 0,1.008 0.288,1.8 1.008,2.448 0.648,0.72 1.44,1.008 2.448,1.008 0.936,0 1.728,-0.288 2.376,-1.008 0.72,-0.648 1.08,-1.44 1.08,-2.448 v -18 c 3.672,3.24 8.064,4.896 13.032,4.896 5.544,0 10.224,-1.944 14.112,-5.832 3.888,-3.96 5.904,-8.64 5.904,-14.184 0,-5.472 -2.016,-10.224 -5.904,-14.112 z m -14.112,27.216 c -3.6,0 -6.696,-1.296 -9.216,-3.816 -2.592,-2.592 -3.816,-5.688 -3.816,-9.288 0,-2.304 0.576,-4.536 1.728,-6.552 1.152,-2.016 2.736,-3.6 4.752,-4.752 2.016,-1.152 4.176,-1.728 6.552,-1.728 3.6,0 6.696,1.296 9.216,3.816 2.592,2.592 3.888,5.616 3.888,9.216 0,3.6 -1.296,6.696 -3.888,9.288 -2.52,2.52 -5.616,3.816 -9.216,3.816 z" stroke-width="0" stroke-linejoin="miter" stroke-miterlimit="2" fill="#219ab3" stroke="#219ab3" transform="translate(0 323.632) translate(177.1418633333334 13.831999999999994) scale(2.3333333333333335) translate(-430.1675 39.6)"/>
        <path id="path244540" style="font-style:normal;font-weight:700;font-size:72px;line-height:1;font-family:'Comfortaa Bold Alt2';font-variant-ligatures:none;text-align:center;text-anchor:middle" d="m 497.7125,0.288 c 4.752,0 8.928,-1.44 12.6,-4.464 0.792,-0.576 1.152,-1.368 1.296,-2.304 0.072,-1.008 -0.144,-1.8 -0.792,-2.592 -0.576,-0.72 -1.368,-1.152 -2.304,-1.224 -0.936,-0.072 -1.8,0.144 -2.52,0.792 -2.448,1.944 -5.184,2.88 -8.28,2.88 -3.6,0 -6.696,-1.224 -9.216,-3.816 -2.592,-2.52 -3.816,-5.616 -3.816,-9.216 0,-3.6 1.224,-6.696 3.816,-9.288 2.52,-2.52 5.616,-3.816 9.216,-3.816 2.952,0 5.616,0.936 7.992,2.736 2.304,1.8 3.816,4.104 4.608,6.912 h -12.6 c -0.936,0 -1.8,0.36 -2.448,1.008 -0.648,0.648 -1.008,1.512 -1.008,2.448 0,0.936 0.36,1.8 1.008,2.448 0.648,0.648 1.512,1.008 2.448,1.008 h 16.56 c 0.936,0 1.728,-0.36 2.376,-1.008 0.72,-0.648 1.08,-1.512 1.08,-2.448 0,-5.544 -2.016,-10.224 -5.904,-14.112 -3.888,-3.888 -8.568,-5.904 -14.112,-5.904 -5.544,0 -10.224,2.016 -14.112,5.904 -3.888,3.888 -5.832,8.568 -5.832,14.112 0,5.544 1.944,10.224 5.832,14.112 3.888,3.888 8.568,5.832 14.112,5.832 z" stroke-width="0" stroke-linejoin="miter" stroke-miterlimit="2" fill="#219ab3" stroke="#219ab3" transform="translate(0 323.632) translate(288.21086333333346 13.664000000000001) scale(2.3333333333333335) translate(-477.7685 39.672)"/>
        <path id="path244542" style="font-style:normal;font-weight:700;font-size:72px;line-height:1;font-family:'Comfortaa Bold Alt2';font-variant-ligatures:none;text-align:center;text-anchor:middle" d="m 558.70325,0.216 c 1.008,0 1.872,-0.36 2.592,-1.08 0.72,-0.72 1.008,-1.584 1.008,-2.592 V -21.96 c 0,-5.04 -1.8,-9.36 -5.328,-12.96 -3.6,-3.6 -7.992,-5.4 -13.032,-5.4 -5.112,0 -9.432,1.8 -13.032,5.4 -3.6,3.6 -5.4,7.92 -5.4,12.96 v 18.504 c 0,1.008 0.36,1.872 1.08,2.592 0.72,0.72 1.584,1.008 2.52,1.008 1.008,0 1.872,-0.288 2.592,-1.008 0.72,-0.72 1.008,-1.584 1.008,-2.592 V -21.96 c 0,-3.024 1.152,-5.688 3.312,-7.848 2.16,-2.232 4.824,-3.312 7.92,-3.312 3.096,0 5.688,1.08 7.92,3.312 2.16,2.16 3.24,4.824 3.24,7.848 v 18.576 c 0,0.936 0.36,1.8 1.08,2.52 0.72,0.72 1.584,1.08 2.52,1.08 z" stroke-width="0" stroke-linejoin="miter" stroke-miterlimit="2" fill="#219ab3" stroke="#219ab3" transform="translate(0 323.632) translate(399.6106133333334 12.151999999999987) scale(2.3333333333333335) translate(-525.51125 40.32)"/>
        <path id="path244544" style="font-style:normal;font-weight:700;font-size:72px;line-height:1;font-family:'Comfortaa Bold Alt2';font-variant-ligatures:none;text-align:center;text-anchor:middle" d="m 596.76537,-38.16 c -2.448,-1.008 -5.256,-1.512 -8.352,-1.512 -2.592,0 -4.96799,0.432 -7.19999,1.224 -2.30401,0.864 -4.10401,2.088 -5.47201,3.672 -1.44,1.656 -2.088,3.672 -2.088,5.976 0,5.832 4.60801,9.648 13.82401,11.376 3.52799,0.72 6.04799,1.512 7.55999,2.52 1.44001,1.008 2.232,2.232 2.232,3.672 0,1.584 -0.79199,2.808 -2.304,3.672 -1.51199,0.936 -3.6,1.368 -6.336,1.368 -2.08799,0 -4.03199,-0.36 -5.832,-1.08 -1.87199,-0.72 -3.24,-1.656 -4.104,-2.664 -0.86399,-0.864 -1.8,-1.296 -2.736,-1.296 -0.79199,0 -1.656,0.36 -2.52,1.008 -1.00799,0.72 -1.43999,1.656 -1.43999,2.808 0,0.864 0.288,1.656 0.93599,2.232 1.58401,1.656 3.888,2.952 6.768,3.96 2.88,1.008 5.904,1.512 9.216,1.512 3.24,0 6.048,-0.504 8.352,-1.512 2.304,-1.008 4.104,-2.448 5.32801,-4.248 1.15199,-1.8 1.79999,-3.816 1.79999,-6.048 0,-2.952 -1.152,-5.4 -3.312,-7.272 -2.15999,-1.872 -5.904,-3.312 -11.08799,-4.392 -2.592,-0.504 -4.53601,-1.008 -5.832,-1.584 -1.36801,-0.576 -2.30401,-1.152 -2.736,-1.8 -0.504,-0.648 -0.72,-1.44 -0.72,-2.448 0,-1.296 0.648,-2.376 2.08799,-3.096 1.44001,-0.72 3.24,-1.152 5.472,-1.152 1.87201,0 3.528,0.288 4.89601,0.72 1.29599,0.432 2.592,1.224 3.81599,2.304 1.008,0.936 2.08801,1.368 3.384,1.368 0.792,0 1.44001,-0.144 2.01601,-0.576 0.79199,-0.648 1.22399,-1.368 1.22399,-2.232 0,-0.72 -0.36,-1.512 -0.936,-2.304 -1.44,-1.728 -3.45599,-3.168 -5.904,-4.176 z" stroke-width="0" stroke-linejoin="miter" stroke-miterlimit="2" fill="#219ab3" stroke="#219ab3" transform="translate(0 323.632) translate(508.07825 13.664000000000001) scale(2.3333333333333335) translate(-571.99738 39.672)"/>
        <path id="path244546" style="font-style:normal;font-weight:700;font-size:72px;line-height:1;font-family:'Comfortaa Bold Alt2';font-variant-ligatures:none;text-align:center;text-anchor:middle" d="m 630.60312,0.288 c 4.75201,0 8.928,-1.44 12.6,-4.464 0.79201,-0.576 1.15201,-1.368 1.29601,-2.304 0.072,-1.008 -0.144,-1.8 -0.792,-2.592 -0.57601,-0.72 -1.36801,-1.152 -2.304,-1.224 -0.93601,-0.072 -1.80001,0.144 -2.52001,0.792 -2.448,1.944 -5.184,2.88 -8.28,2.88 -3.6,0 -6.696,-1.224 -9.216,-3.816 -2.592,-2.52 -3.81599,-5.616 -3.81599,-9.216 0,-3.6 1.22399,-6.696 3.81599,-9.288 2.52,-2.52 5.616,-3.816 9.216,-3.816 2.952,0 5.616,0.936 7.99201,2.736 2.304,1.8 3.81599,4.104 4.60799,6.912 h -12.6 c -0.936,0 -1.79999,0.36 -2.448,1.008 -0.648,0.648 -1.008,1.512 -1.008,2.448 0,0.936 0.36,1.8 1.008,2.448 0.64801,0.648 1.512,1.008 2.448,1.008 h 16.56001 c 0.93599,0 1.72799,-0.36 2.376,-1.008 0.72,-0.648 1.07999,-1.512 1.07999,-2.448 0,-5.544 -2.016,-10.224 -5.904,-14.112 -3.88799,-3.888 -8.568,-5.904 -14.112,-5.904 -5.544,0 -10.22399,2.016 -14.112,5.904 -3.888,3.888 -5.83199,8.568 -5.83199,14.112 0,5.544 1.94399,10.224 5.83199,14.112 3.88801,3.888 8.568,5.832 14.112,5.832 z" stroke-width="0" stroke-linejoin="miter" stroke-miterlimit="2" fill="#219ab3" stroke="#219ab3" transform="translate(0 323.632) translate(598.289 13.664000000000001) scale(2.3333333333333335) translate(-610.65913 39.672)"/>
      </g>
      <image xlink:href="" id="icon" style="display: none;" x="0" y="0"/>
    </g>
  </g>
</svg>